<svg xmlns="http://www.w3.org/2000/svg" width="150" height="43" viewBox="0 0 316 43" fill="none">
                        <path
                            d="M208.822 3.90985H210.422V15.1098H208.822V3.90985ZM202.39 15.1098H200.79V3.90985H202.39V15.1098ZM208.966 10.1178H202.23V8.72585H208.966V10.1178Z"
                            fill="#4E4E4E" data-darkreader-inline-fill=""
                            style="--darkreader-inline-fill: var(--darkreader-text-4e4e4e, #c7baa5);">
                        </path>
                        <path
                            d="M189.015 12.3578V11.2378L194.743 3.90985H196.471L190.791 11.2378L189.975 10.9818H198.919V12.3578H189.015ZM195.239 15.1098V12.3578L195.287 10.9818V8.54985H196.791V15.1098H195.239Z"
                            fill="#4E4E4E" data-darkreader-inline-fill=""
                            style="--darkreader-inline-fill: var(--darkreader-text-4e4e4e, #c7baa5);">
                        </path>
                        <path
                            d="M180.124 15.1098V14.0218L184.684 9.62185C185.089 9.23785 185.388 8.90185 185.58 8.61385C185.783 8.31518 185.916 8.04318 185.98 7.79785C186.055 7.54185 186.092 7.29651 186.092 7.06185C186.092 6.48585 185.889 6.03251 185.484 5.70185C185.079 5.37118 184.487 5.20585 183.708 5.20585C183.111 5.20585 182.572 5.30718 182.092 5.50985C181.612 5.70185 181.196 6.00585 180.844 6.42185L179.756 5.47785C180.183 4.93385 180.753 4.51785 181.468 4.22985C182.193 3.93118 182.988 3.78185 183.852 3.78185C184.631 3.78185 185.308 3.90985 185.884 4.16585C186.46 4.41118 186.903 4.76851 187.212 5.23785C187.532 5.70718 187.692 6.26185 187.692 6.90185C187.692 7.26451 187.644 7.62185 187.548 7.97385C187.452 8.32585 187.271 8.69918 187.004 9.09385C186.737 9.48851 186.353 9.93118 185.852 10.4218L181.788 14.3418L181.404 13.7178H188.172V15.1098H180.124Z"
                            fill="#4E4E4E" data-darkreader-inline-fill=""
                            style="--darkreader-inline-fill: var(--darkreader-text-4e4e4e, #c7baa5);">
                        </path>
                        <path
                            d="M167.652 8.74185H173.412V10.1018H167.652V8.74185ZM167.796 13.7178H174.324V15.1098H166.196V3.90985H174.1V5.30185H167.796V13.7178ZM168.964 2.99785L171.14 0.917847H173.092L170.404 2.99785H168.964Z"
                            fill="#4E4E4E" data-darkreader-inline-fill=""
                            style="--darkreader-inline-fill: var(--darkreader-text-4e4e4e, #c7baa5);">
                        </path>
                        <path d="M159.03 15.1098V5.30185H155.19V3.90985H164.454V5.30185H160.614V15.1098H159.03Z"
                            fill="#4E4E4E" data-darkreader-inline-fill=""
                            style="--darkreader-inline-fill: var(--darkreader-text-4e4e4e, #c7baa5);">
                        </path>
                        <path
                            d="M143.953 15.1098L149.025 3.90985H150.609L155.697 15.1098H154.017L149.489 4.80585H150.129L145.601 15.1098H143.953ZM146.113 12.3098L146.545 11.0298H152.849L153.313 12.3098H146.113Z"
                            fill="#4E4E4E" data-darkreader-inline-fill=""
                            style="--darkreader-inline-fill: var(--darkreader-text-4e4e4e, #c7baa5);">
                        </path>
                        <path
                            d="M126.071 15.1098V3.90985H127.383L132.407 12.3738H131.703L136.663 3.90985H137.975L137.991 15.1098H136.455L136.439 6.32585H136.807L132.391 13.7498H131.655L127.207 6.32585H127.607V15.1098H126.071Z"
                            fill="#4E4E4E" data-darkreader-inline-fill=""
                            style="--darkreader-inline-fill: var(--darkreader-text-4e4e4e, #c7baa5);">
                        </path>
                        <path
                            d="M116.809 8.74185H122.569V10.1018H116.809V8.74185ZM116.953 13.7178H123.481V15.1098H115.353V3.90985H123.257V5.30185H116.953V13.7178Z"
                            fill="#4E4E4E" data-darkreader-inline-fill=""
                            style="--darkreader-inline-fill: var(--darkreader-text-4e4e4e, #c7baa5);">
                        </path>
                        <path
                            d="M102.674 15.2378C101.821 15.2378 101.026 15.0938 100.29 14.8058C99.5648 14.5178 98.9355 14.1178 98.4022 13.6058C97.8688 13.0832 97.4528 12.4752 97.1542 11.7818C96.8555 11.0885 96.7062 10.3312 96.7062 9.50985C96.7062 8.68851 96.8555 7.93118 97.1542 7.23785C97.4528 6.54451 97.8688 5.94185 98.4022 5.42985C98.9355 4.90718 99.5648 4.50185 100.29 4.21385C101.015 3.92585 101.81 3.78185 102.674 3.78185C103.527 3.78185 104.312 3.92585 105.026 4.21385C105.752 4.49118 106.381 4.89118 106.914 5.41385C107.458 5.92585 107.874 6.52851 108.162 7.22185C108.461 7.91518 108.61 8.67785 108.61 9.50985C108.61 10.3418 108.461 11.1045 108.162 11.7978C107.874 12.4912 107.458 13.0992 106.914 13.6218C106.381 14.1338 105.752 14.5338 105.026 14.8218C104.312 15.0992 103.527 15.2378 102.674 15.2378ZM102.674 13.8138C103.293 13.8138 103.863 13.7072 104.386 13.4938C104.919 13.2805 105.378 12.9818 105.762 12.5978C106.157 12.2032 106.461 11.7445 106.674 11.2218C106.898 10.6992 107.01 10.1285 107.01 9.50985C107.01 8.89118 106.898 8.32051 106.674 7.79785C106.461 7.27518 106.157 6.82185 105.762 6.43785C105.378 6.04318 104.919 5.73918 104.386 5.52585C103.863 5.31251 103.293 5.20585 102.674 5.20585C102.045 5.20585 101.463 5.31251 100.93 5.52585C100.407 5.73918 99.9488 6.04318 99.5542 6.43785C99.1595 6.82185 98.8502 7.27518 98.6262 7.79785C98.4128 8.32051 98.3062 8.89118 98.3062 9.50985C98.3062 10.1285 98.4128 10.6992 98.6262 11.2218C98.8502 11.7445 99.1595 12.2032 99.5542 12.5978C99.9488 12.9818 100.407 13.2805 100.93 13.4938C101.463 13.7072 102.045 13.8138 102.674 13.8138Z"
                            fill="#4E4E4E" data-darkreader-inline-fill=""
                            style="--darkreader-inline-fill: var(--darkreader-text-4e4e4e, #c7baa5);">
                        </path>
                        <path d="M92.665 15.1098V3.90985H94.265V15.1098H92.665Z" fill="#4E4E4E"
                            data-darkreader-inline-fill=""
                            style="--darkreader-inline-fill: var(--darkreader-text-4e4e4e, #c7baa5);">
                        </path>
                        <path
                            d="M84.7408 15.1098L79.8128 3.90985H81.5408L86.0688 14.2458H85.0768L89.6368 3.90985H91.2368L86.3248 15.1098H84.7408Z"
                            fill="#4E4E4E" data-darkreader-inline-fill=""
                            style="--darkreader-inline-fill: var(--darkreader-text-4e4e4e, #c7baa5);">
                        </path>
                        <path
                            d="M68.6338 15.1098V3.90985H69.9458L77.3538 13.1098H76.6658V3.90985H78.2658V15.1098H76.9538L69.5458 5.90985H70.2338V15.1098H68.6338Z"
                            fill="#4E4E4E" data-darkreader-inline-fill=""
                            style="--darkreader-inline-fill: var(--darkreader-text-4e4e4e, #c7baa5);">
                        </path>
                        <path
                            d="M59.371 8.74185H65.131V10.1018H59.371V8.74185ZM59.515 13.7178H66.043V15.1098H57.915V3.90985H65.819V5.30185H59.515V13.7178Z"
                            fill="#4E4E4E" data-darkreader-inline-fill=""
                            style="--darkreader-inline-fill: var(--darkreader-text-4e4e4e, #c7baa5);">
                        </path>
                        <path fill-rule="evenodd" clip-rule="evenodd"
                            d="M22.1708 20.0533V37.7785L36.3032 29.0117C36.6817 28.7918 36.9151 28.3863 36.9151 27.9489V11.4524L22.1708 20.0533Z"
                            fill="#263570" data-darkreader-inline-fill=""
                            style="--darkreader-inline-fill: var(--darkreader-text-263570, #b5bcc1);">
                        </path>
                        <path fill-rule="evenodd" clip-rule="evenodd"
                            d="M35.6864 9.32429L20.9421 17.9252L16.0961 15.0979L29.9816 5.99698L35.6864 9.32429ZM6.19769 9.32429L13.7235 13.7144L27.6102 4.61346L21.5613 1.08464C21.1792 0.862248 20.7049 0.862248 20.3228 1.08464L6.19769 9.32429Z"
                            fill="#263570" data-darkreader-inline-fill=""
                            style="--darkreader-inline-fill: var(--darkreader-text-263570, #b5bcc1);">
                        </path>
                        <path fill-rule="evenodd" clip-rule="evenodd"
                            d="M4.96899 19.348V11.4524L19.7134 20.0533V37.7785L9.81006 31.635H12.3412C13.0194 31.635 13.5699 31.0845 13.5699 30.4063C13.5699 29.728 13.0194 29.1776 12.3412 29.1776H0.933947L0.666091 29.0117C0.287652 28.7918 0.0541992 28.3863 0.0541992 27.9489V26.7202H16.0273C16.7055 26.7202 17.256 26.1697 17.256 25.4915C17.256 24.8133 16.7055 24.2628 16.0273 24.2628H0.0541992V21.8054H12.3412C13.0194 21.8054 13.5699 21.2549 13.5699 20.5767C13.5699 19.8985 13.0194 19.348 12.3412 19.348H4.96899Z"
                            fill="#263570" data-darkreader-inline-fill=""
                            style="--darkreader-inline-fill: var(--darkreader-text-263570, #b5bcc1);">
                        </path>
                        <path d="M63.387 42.1099V28.4779H58.011V25.3099H72.651V28.4779H67.275V42.1099H63.387Z"
                            fill="#4E4E4E" data-darkreader-inline-fill=""
                            style="--darkreader-inline-fill: var(--darkreader-text-4e4e4e, #c7baa5);">
                        </path>
                        <path
                            d="M82.6446 42.3979C77.3406 42.3979 73.4526 38.7019 73.4526 33.7099C73.4526 28.7179 77.3406 25.0219 82.6446 25.0219C87.9246 25.0219 91.8366 28.6939 91.8366 33.7099C91.8366 38.7259 87.9246 42.3979 82.6446 42.3979ZM82.6446 39.0859C85.6446 39.0859 87.9006 36.9019 87.9006 33.7099C87.9006 30.5179 85.6446 28.3339 82.6446 28.3339C79.6446 28.3339 77.3886 30.5179 77.3886 33.7099C77.3886 36.9019 79.6446 39.0859 82.6446 39.0859Z"
                            fill="#4E4E4E" data-darkreader-inline-fill=""
                            style="--darkreader-inline-fill: var(--darkreader-text-4e4e4e, #c7baa5);">
                        </path>
                        <path
                            d="M94.7586 42.1099V25.3099H102.391C107.887 25.3099 111.655 28.6219 111.655 33.7099C111.655 38.7979 107.887 42.1099 102.391 42.1099H94.7586ZM98.6466 38.9179H102.199C105.535 38.9179 107.719 36.9259 107.719 33.7099C107.719 30.4939 105.535 28.5019 102.199 28.5019H98.6466V38.9179Z"
                            fill="#4E4E4E" data-darkreader-inline-fill=""
                            style="--darkreader-inline-fill: var(--darkreader-text-4e4e4e, #c7baa5);">
                        </path>
                        <path
                            d="M122.723 42.3979C117.419 42.3979 113.531 38.7019 113.531 33.7099C113.531 28.7179 117.419 25.0219 122.723 25.0219C128.003 25.0219 131.915 28.6939 131.915 33.7099C131.915 38.7259 128.003 42.3979 122.723 42.3979ZM122.723 39.0859C125.723 39.0859 127.979 36.9019 127.979 33.7099C127.979 30.5179 125.723 28.3339 122.723 28.3339C119.723 28.3339 117.467 30.5179 117.467 33.7099C117.467 36.9019 119.723 39.0859 122.723 39.0859Z"
                            fill="#4E4E4E" data-darkreader-inline-fill=""
                            style="--darkreader-inline-fill: var(--darkreader-text-4e4e4e, #c7baa5);">
                        </path>
                        <path
                            d="M140.357 42.3979C137.693 42.3979 135.005 41.6059 133.517 40.4539L134.837 37.5259C136.253 38.5579 138.365 39.2779 140.381 39.2779C142.685 39.2779 143.621 38.5099 143.621 37.4779C143.621 34.3339 133.853 36.4939 133.853 30.2539C133.853 27.3979 136.157 25.0219 140.933 25.0219C143.045 25.0219 145.205 25.5259 146.765 26.5099L145.565 29.4619C144.005 28.5739 142.397 28.1419 140.909 28.1419C138.605 28.1419 137.717 29.0059 137.717 30.0619C137.717 33.1579 147.485 31.0219 147.485 37.1899C147.485 39.9979 145.157 42.3979 140.357 42.3979Z"
                            fill="#4E4E4E" data-darkreader-inline-fill=""
                            style="--darkreader-inline-fill: var(--darkreader-text-4e4e4e, #c7baa5);">
                        </path>
                        <path
                            d="M165.074 42.3979C159.77 42.3979 155.882 38.7019 155.882 33.7099C155.882 28.7179 159.77 25.0219 165.074 25.0219C170.354 25.0219 174.266 28.6939 174.266 33.7099C174.266 38.7259 170.354 42.3979 165.074 42.3979ZM165.074 39.0859C168.074 39.0859 170.33 36.9019 170.33 33.7099C170.33 30.5179 168.074 28.3339 165.074 28.3339C162.074 28.3339 159.818 30.5179 159.818 33.7099C159.818 36.9019 162.074 39.0859 165.074 39.0859Z"
                            fill="#4E4E4E" data-darkreader-inline-fill=""
                            style="--darkreader-inline-fill: var(--darkreader-text-4e4e4e, #c7baa5);">
                        </path>
                        <path
                            d="M182.708 42.3979C180.044 42.3979 177.356 41.6059 175.868 40.4539L177.188 37.5259C178.604 38.5579 180.716 39.2779 182.732 39.2779C185.036 39.2779 185.972 38.5099 185.972 37.4779C185.972 34.3339 176.204 36.4939 176.204 30.2539C176.204 27.3979 178.508 25.0219 183.284 25.0219C185.396 25.0219 187.556 25.5259 189.116 26.5099L187.916 29.4619C186.356 28.5739 184.748 28.1419 183.26 28.1419C180.956 28.1419 180.068 29.0059 180.068 30.0619C180.068 33.1579 189.836 31.0219 189.836 37.1899C189.836 39.9979 187.508 42.3979 182.708 42.3979Z"
                            fill="#4E4E4E" data-darkreader-inline-fill=""
                            style="--darkreader-inline-fill: var(--darkreader-text-4e4e4e, #c7baa5);">
                        </path>
                        <path
                            d="M203.154 38.9899H212.298V42.1099H199.29V25.3099H211.986V28.4299H203.154V32.0779H210.954V35.1019H203.154V38.9899Z"
                            fill="#4E4E4E" data-darkreader-inline-fill=""
                            style="--darkreader-inline-fill: var(--darkreader-text-4e4e4e, #c7baa5);">
                        </path>
                        <path
                            d="M220.911 42.3979C218.247 42.3979 215.559 41.6059 214.071 40.4539L215.391 37.5259C216.807 38.5579 218.919 39.2779 220.935 39.2779C223.239 39.2779 224.175 38.5099 224.175 37.4779C224.175 34.3339 214.407 36.4939 214.407 30.2539C214.407 27.3979 216.711 25.0219 221.487 25.0219C223.599 25.0219 225.759 25.5259 227.319 26.5099L226.119 29.4619C224.559 28.5739 222.951 28.1419 221.463 28.1419C219.159 28.1419 218.271 29.0059 218.271 30.0619C218.271 33.1579 228.039 31.0219 228.039 37.1899C228.039 39.9979 225.711 42.3979 220.911 42.3979Z"
                            fill="#4E4E4E" data-darkreader-inline-fill=""
                            style="--darkreader-inline-fill: var(--darkreader-text-4e4e4e, #c7baa5);">
                        </path>
                        <path d="M233.942 42.1099V28.4779H228.566V25.3099H243.206V28.4779H237.83V42.1099H233.942Z"
                            fill="#4E4E4E" data-darkreader-inline-fill=""
                            style="--darkreader-inline-fill: var(--darkreader-text-4e4e4e, #c7baa5);">
                        </path>
                        <path
                            d="M257.006 42.1099L255.518 38.5099H247.718L246.23 42.1099H242.246L249.734 25.3099H253.574L261.086 42.1099H257.006ZM248.966 35.5579H254.294L251.63 29.1259L248.966 35.5579Z"
                            fill="#4E4E4E" data-darkreader-inline-fill=""
                            style="--darkreader-inline-fill: var(--darkreader-text-4e4e4e, #c7baa5);">
                        </path>
                        <path
                            d="M262.829 42.1099V25.3099H270.461C275.957 25.3099 279.725 28.6219 279.725 33.7099C279.725 38.7979 275.957 42.1099 270.461 42.1099H262.829ZM266.717 38.9179H270.269C273.605 38.9179 275.789 36.9259 275.789 33.7099C275.789 30.4939 273.605 28.5019 270.269 28.5019H266.717V38.9179Z"
                            fill="#4E4E4E" data-darkreader-inline-fill=""
                            style="--darkreader-inline-fill: var(--darkreader-text-4e4e4e, #c7baa5);">
                        </path>
                        <path
                            d="M290.793 42.3979C285.489 42.3979 281.601 38.7019 281.601 33.7099C281.601 28.7179 285.489 25.0219 290.793 25.0219C296.073 25.0219 299.985 28.6939 299.985 33.7099C299.985 38.7259 296.073 42.3979 290.793 42.3979ZM290.793 39.0859C293.793 39.0859 296.049 36.9019 296.049 33.7099C296.049 30.5179 293.793 28.3339 290.793 28.3339C287.793 28.3339 285.537 30.5179 285.537 33.7099C285.537 36.9019 287.793 39.0859 290.793 39.0859Z"
                            fill="#4E4E4E" data-darkreader-inline-fill=""
                            style="--darkreader-inline-fill: var(--darkreader-text-4e4e4e, #c7baa5);">
                        </path>
                        <path
                            d="M308.427 42.3979C305.763 42.3979 303.075 41.6059 301.587 40.4539L302.907 37.5259C304.323 38.5579 306.435 39.2779 308.451 39.2779C310.755 39.2779 311.691 38.5099 311.691 37.4779C311.691 34.3339 301.923 36.4939 301.923 30.2539C301.923 27.3979 304.227 25.0219 309.003 25.0219C311.115 25.0219 313.275 25.5259 314.835 26.5099L313.635 29.4619C312.075 28.5739 310.467 28.1419 308.979 28.1419C306.675 28.1419 305.787 29.0059 305.787 30.0619C305.787 33.1579 315.555 31.0219 315.555 37.1899C315.555 39.9979 313.227 42.3979 308.427 42.3979Z"
                            fill="#4E4E4E" data-darkreader-inline-fill=""
                            style="--darkreader-inline-fill: var(--darkreader-text-4e4e4e, #c7baa5);">
                        </path>
                        <path
                            d="M225.59 3.90986C228.502 3.90986 230.262 5.38186 230.262 7.81386C230.262 10.2459 228.502 11.7179 225.59 11.7179H222.822V15.1099H221.222V3.90986H225.59ZM225.542 10.3259C227.59 10.3259 228.662 9.41386 228.662 7.81386C228.662 6.21386 227.59 5.30186 225.542 5.30186H222.822V10.3259H225.542Z"
                            fill="#4E4E4E" data-darkreader-inline-fill=""
                            style="--darkreader-inline-fill: var(--darkreader-text-4e4e4e, #c7baa5);">
                        </path>
                        <path
                            d="M240.418 15.1099L239.186 12.3099H233.234L232.002 15.1099H230.354L235.426 3.90986H237.01L242.098 15.1099H240.418ZM233.794 11.0299H238.626L236.21 5.54186L233.794 11.0299Z"
                            fill="#4E4E4E" data-darkreader-inline-fill=""
                            style="--darkreader-inline-fill: var(--darkreader-text-4e4e4e, #c7baa5);">
                        </path>
                        <path
                            d="M253.001 15.1099H251.257L248.841 11.6699C248.617 11.6859 248.377 11.7019 248.137 11.7019H245.369V15.1099H243.769V3.90986H248.137C251.049 3.90986 252.809 5.38186 252.809 7.81386C252.809 9.54186 251.913 10.7899 250.345 11.3499L253.001 15.1099ZM248.089 10.3419C250.137 10.3419 251.209 9.41386 251.209 7.81386C251.209 6.21386 250.137 5.30186 248.089 5.30186H245.369V10.3419H248.089Z"
                            fill="#4E4E4E" data-darkreader-inline-fill=""
                            style="--darkreader-inline-fill: var(--darkreader-text-4e4e4e, #c7baa5);">
                        </path>
                        <path
                            d="M263.762 15.1099L262.53 12.3099H256.578L255.346 15.1099H253.698L258.77 3.90986H260.354L265.442 15.1099H263.762ZM257.138 11.0299H261.97L259.554 5.54186L257.138 11.0299Z"
                            fill="#4E4E4E" data-darkreader-inline-fill=""
                            style="--darkreader-inline-fill: var(--darkreader-text-4e4e4e, #c7baa5);">
                        </path>
                    </svg>