<svg xmlns="http://www.w3.org/2000/svg" width="150" height="44" viewBox="0 0 232 44" fill="none">
                        <path fill-rule="evenodd" clip-rule="evenodd"
                            d="M29.9513 0.264137C33.578 1.10571 34.9653 3.22639 36.7046 6.14524H29.9513V0.264137ZM8.75656 6.39034C9.46665 6.39034 9.98206 6.73309 9.98206 7.53413C9.98206 8.20975 9.43537 8.75771 8.76007 8.75963H1.35635C0.67946 8.75963 0.130859 9.30855 0.130859 9.98512C0.130859 10.662 0.67946 11.2106 1.35635 11.2106H12.3858C13.0691 11.2106 13.6161 11.7589 13.6161 12.4361C13.6161 13.113 13.0675 13.6616 12.3906 13.6616H1.35635C0.67946 13.6616 0.130859 14.2102 0.130859 14.8871C0.130859 15.564 0.67946 16.1126 1.35635 16.1126H4.05245V19.7891C4.05245 20.466 4.60105 21.0146 5.27794 21.0146H7.74138C8.18051 23.1777 10.0918 24.7728 12.345 24.7728C14.5981 24.7728 16.5094 23.1777 16.9486 21.0146H29.3918C29.8309 23.1777 31.7423 24.7728 33.9954 24.7728C36.2485 24.7728 38.1598 23.1777 38.599 21.0146H40.7356C41.4125 21.0146 41.9611 20.466 41.9611 19.7891V12.4361C41.9611 8.84037 38.1685 8.60166 38.1649 8.59623H28.7258C28.0489 8.59623 27.5003 8.04763 27.5003 7.37073V0.0177612H5.27794C4.60105 0.0177612 4.05245 0.566362 4.05245 1.24326V3.93935H2.58185C1.90496 3.93935 1.35635 4.48795 1.35635 5.16484C1.35635 5.84174 1.90496 6.39034 2.58185 6.39034H8.75656ZM35.5841 18.4864C36.4614 19.3637 36.4614 20.7867 35.5841 21.664C34.1728 23.0753 31.7486 22.0713 31.7486 20.075C31.7486 18.0791 34.1728 17.0751 35.5841 18.4864ZM13.9336 18.4864C14.811 19.3637 14.811 20.7867 13.9336 21.664C12.5224 23.0753 10.0982 22.0713 10.0982 20.075C10.0982 18.0791 12.5224 17.0751 13.9336 18.4864Z"
                            fill="#263570" data-darkreader-inline-fill=""
                            style="--darkreader-inline-fill: var(--darkreader-text-263570, #b5bcc1);">
                        </path>
                        <path
                            d="M211.062 14.2098L216.135 3.00977H217.719L222.807 14.2098H221.127L216.599 3.90577H217.239L212.711 14.2098H211.062ZM213.223 11.4098L213.655 10.1298H219.959L220.423 11.4098H213.223Z"
                            fill="#4E4E4E" data-darkreader-inline-fill=""
                            style="--darkreader-inline-fill: var(--darkreader-text-4e4e4e, #c7baa5);">
                        </path>
                        <path
                            d="M201.133 14.2098V3.00977H205.501C206.482 3.00977 207.319 3.16443 208.013 3.47377C208.706 3.7831 209.239 4.2311 209.613 4.81777C209.986 5.40443 210.173 6.1031 210.173 6.91377C210.173 7.72443 209.986 8.4231 209.613 9.00977C209.239 9.58577 208.706 10.0284 208.013 10.3378C207.319 10.6471 206.482 10.8018 205.501 10.8018H202.013L202.733 10.0658V14.2098H201.133ZM208.621 14.2098L205.773 10.1458H207.485L210.365 14.2098H208.621ZM202.733 10.2258L202.013 9.44177H205.453C206.477 9.44177 207.25 9.2231 207.773 8.78577C208.306 8.33777 208.573 7.71377 208.573 6.91377C208.573 6.11377 208.306 5.4951 207.773 5.05777C207.25 4.62043 206.477 4.40177 205.453 4.40177H202.013L202.733 3.60177V10.2258Z"
                            fill="#4E4E4E" data-darkreader-inline-fill=""
                            style="--darkreader-inline-fill: var(--darkreader-text-4e4e4e, #c7baa5);">
                        </path>
                        <path
                            d="M187.719 14.2098L192.791 3.00977H194.375L199.463 14.2098H197.783L193.255 3.90577H193.895L189.367 14.2098H187.719ZM189.879 11.4098L190.311 10.1298H196.615L197.079 11.4098H189.879Z"
                            fill="#4E4E4E" data-darkreader-inline-fill=""
                            style="--darkreader-inline-fill: var(--darkreader-text-4e4e4e, #c7baa5);">
                        </path>
                        <path
                            d="M178.586 14.2098V3.00977H182.954C183.935 3.00977 184.773 3.16443 185.466 3.47377C186.159 3.7831 186.693 4.2311 187.066 4.81777C187.439 5.40443 187.626 6.1031 187.626 6.91377C187.626 7.72443 187.439 8.4231 187.066 9.00977C186.693 9.58577 186.159 10.0338 185.466 10.3538C184.773 10.6631 183.935 10.8178 182.954 10.8178H179.466L180.186 10.0658V14.2098H178.586ZM180.186 10.2258L179.466 9.42577H182.906C183.93 9.42577 184.703 9.2071 185.226 8.76977C185.759 8.33243 186.026 7.71377 186.026 6.91377C186.026 6.11377 185.759 5.4951 185.226 5.05777C184.703 4.62043 183.93 4.40177 182.906 4.40177H179.466L180.186 3.60177V10.2258Z"
                            fill="#4E4E4E" data-darkreader-inline-fill=""
                            style="--darkreader-inline-fill: var(--darkreader-text-4e4e4e, #c7baa5);">
                        </path>
                        <path
                            d="M167.616 14.3378C166.763 14.3378 165.947 14.2098 165.168 13.9538C164.389 13.6871 163.776 13.3458 163.328 12.9298L163.92 11.6818C164.347 12.0551 164.891 12.3644 165.552 12.6098C166.213 12.8551 166.901 12.9778 167.616 12.9778C168.267 12.9778 168.795 12.9031 169.2 12.7538C169.605 12.6044 169.904 12.4018 170.096 12.1458C170.288 11.8791 170.384 11.5804 170.384 11.2498C170.384 10.8658 170.256 10.5564 170 10.3218C169.755 10.0871 169.429 9.90044 169.024 9.76177C168.629 9.61244 168.192 9.48444 167.712 9.37777C167.232 9.27111 166.747 9.14844 166.256 9.00977C165.776 8.86044 165.333 8.67377 164.928 8.44977C164.533 8.22577 164.213 7.92711 163.968 7.55377C163.723 7.16977 163.6 6.67911 163.6 6.08177C163.6 5.50577 163.749 4.97777 164.048 4.49777C164.357 4.00711 164.827 3.61777 165.456 3.32977C166.096 3.03111 166.907 2.88177 167.888 2.88177C168.539 2.88177 169.184 2.96711 169.824 3.13777C170.464 3.30844 171.019 3.55377 171.488 3.87377L170.96 5.15377C170.48 4.83377 169.973 4.60444 169.44 4.46577C168.907 4.31644 168.389 4.24177 167.888 4.24177C167.259 4.24177 166.741 4.32177 166.336 4.48177C165.931 4.64177 165.632 4.85511 165.44 5.12177C165.259 5.38844 165.168 5.68711 165.168 6.01777C165.168 6.41244 165.291 6.72711 165.536 6.96177C165.792 7.19644 166.117 7.38311 166.512 7.52177C166.917 7.66044 167.36 7.78844 167.84 7.90577C168.32 8.01244 168.8 8.13511 169.28 8.27377C169.771 8.41244 170.213 8.59377 170.608 8.81777C171.013 9.04177 171.339 9.34044 171.584 9.71377C171.829 10.0871 171.952 10.5671 171.952 11.1538C171.952 11.7191 171.797 12.2471 171.488 12.7378C171.179 13.2178 170.699 13.6071 170.048 13.9058C169.408 14.1938 168.597 14.3378 167.616 14.3378Z"
                            fill="#4E4E4E" data-darkreader-inline-fill=""
                            style="--darkreader-inline-fill: var(--darkreader-text-4e4e4e, #c7baa5);">
                        </path>
                        <path d="M159.398 14.2098V3.00977H160.998V14.2098H159.398Z" fill="#4E4E4E"
                            data-darkreader-inline-fill=""
                            style="--darkreader-inline-fill: var(--darkreader-text-4e4e4e, #c7baa5);">
                        </path>
                        <path d="M152.233 14.2098V4.40177H148.393V3.00977H157.657V4.40177H153.817V14.2098H152.233Z"
                            fill="#4E4E4E" data-darkreader-inline-fill=""
                            style="--darkreader-inline-fill: var(--darkreader-text-4e4e4e, #c7baa5);">
                        </path>
                        <path
                            d="M137.156 14.2098L142.228 3.00976H143.812L148.9 14.2098H147.22L142.692 3.90576H143.332L138.804 14.2098H137.156ZM139.316 11.4098L139.748 10.1298H146.052L146.516 11.4098H139.316ZM141.828 2.09776L144.004 0.0177612H145.956L143.268 2.09776H141.828Z"
                            fill="#4E4E4E" data-darkreader-inline-fill=""
                            style="--darkreader-inline-fill: var(--darkreader-text-4e4e4e, #c7baa5);">
                        </path>
                        <path
                            d="M127.227 14.2098V3.00977H131.595C132.576 3.00977 133.413 3.16443 134.107 3.47377C134.8 3.7831 135.333 4.2311 135.707 4.81777C136.08 5.40443 136.267 6.1031 136.267 6.91377C136.267 7.72443 136.08 8.4231 135.707 9.00977C135.333 9.58577 134.8 10.0284 134.107 10.3378C133.413 10.6471 132.576 10.8018 131.595 10.8018H128.107L128.827 10.0658V14.2098H127.227ZM134.715 14.2098L131.867 10.1458H133.579L136.459 14.2098H134.715ZM128.827 10.2258L128.107 9.44177H131.547C132.571 9.44177 133.344 9.2231 133.867 8.78577C134.4 8.33777 134.667 7.71377 134.667 6.91377C134.667 6.11377 134.4 5.4951 133.867 5.05777C133.344 4.62043 132.571 4.40177 131.547 4.40177H128.107L128.827 3.60177V10.2258Z"
                            fill="#4E4E4E" data-darkreader-inline-fill=""
                            style="--darkreader-inline-fill: var(--darkreader-text-4e4e4e, #c7baa5);">
                        </path>
                        <path
                            d="M119.923 14.3378C119.059 14.3378 118.264 14.1991 117.539 13.9218C116.814 13.6338 116.184 13.2338 115.651 12.7218C115.118 12.1991 114.702 11.5911 114.403 10.8978C114.104 10.2044 113.955 9.44177 113.955 8.60977C113.955 7.77777 114.104 7.01511 114.403 6.32177C114.702 5.62844 115.118 5.02577 115.651 4.51377C116.195 3.99111 116.83 3.59111 117.555 3.31377C118.28 3.02577 119.08 2.88177 119.955 2.88177C120.84 2.88177 121.651 3.02577 122.387 3.31377C123.123 3.60177 123.747 4.03377 124.259 4.60977L123.267 5.60177C122.808 5.15377 122.307 4.82844 121.763 4.62577C121.23 4.41244 120.648 4.30577 120.019 4.30577C119.379 4.30577 118.782 4.41244 118.227 4.62577C117.683 4.83911 117.208 5.13777 116.803 5.52177C116.408 5.90577 116.099 6.36444 115.875 6.89777C115.662 7.42044 115.555 7.99111 115.555 8.60977C115.555 9.21777 115.662 9.78844 115.875 10.3218C116.099 10.8444 116.408 11.3031 116.803 11.6978C117.208 12.0818 117.683 12.3804 118.227 12.5938C118.771 12.8071 119.363 12.9138 120.003 12.9138C120.6 12.9138 121.171 12.8231 121.715 12.6418C122.27 12.4498 122.782 12.1351 123.251 11.6978L124.163 12.9138C123.608 13.3831 122.958 13.7404 122.211 13.9858C121.475 14.2204 120.712 14.3378 119.923 14.3378ZM122.627 12.7058V8.54577H124.163V12.9138L122.627 12.7058Z"
                            fill="#4E4E4E" data-darkreader-inline-fill=""
                            style="--darkreader-inline-fill: var(--darkreader-text-4e4e4e, #c7baa5);">
                        </path>
                        <path
                            d="M101.308 7.84177H107.068V9.20177H101.308V7.84177ZM101.452 12.8178H107.98V14.2098H99.8516V3.00977H107.756V4.40177H101.452V12.8178Z"
                            fill="#4E4E4E" data-darkreader-inline-fill=""
                            style="--darkreader-inline-fill: var(--darkreader-text-4e4e4e, #c7baa5);">
                        </path>
                        <path d="M92.6857 14.2098V4.40177H88.8457V3.00977H98.1097V4.40177H94.2697V14.2098H92.6857Z"
                            fill="#4E4E4E" data-darkreader-inline-fill=""
                            style="--darkreader-inline-fill: var(--darkreader-text-4e4e4e, #c7baa5);">
                        </path>
                        <path
                            d="M81.1982 7.84177H86.9582V9.20177H81.1982V7.84177ZM81.3422 12.8178H87.8702V14.2098H79.7422V3.00977H87.6462V4.40177H81.3422V12.8178Z"
                            fill="#4E4E4E" data-darkreader-inline-fill=""
                            style="--darkreader-inline-fill: var(--darkreader-text-4e4e4e, #c7baa5);">
                        </path>
                        <path
                            d="M68.1172 14.2098V3.00977H72.4852C73.4665 3.00977 74.3039 3.16443 74.9972 3.47377C75.6905 3.7831 76.2239 4.2311 76.5972 4.81777C76.9705 5.40443 77.1572 6.1031 77.1572 6.91377C77.1572 7.72443 76.9705 8.4231 76.5972 9.00977C76.2239 9.58577 75.6905 10.0284 74.9972 10.3378C74.3039 10.6471 73.4665 10.8018 72.4852 10.8018H68.9972L69.7172 10.0658V14.2098H68.1172ZM75.6052 14.2098L72.7572 10.1458H74.4692L77.3492 14.2098H75.6052ZM69.7172 10.2258L68.9972 9.44177H72.4372C73.4612 9.44177 74.2345 9.2231 74.7572 8.78577C75.2905 8.33777 75.5572 7.71377 75.5572 6.91377C75.5572 6.11377 75.2905 5.4951 74.7572 5.05777C74.2345 4.62043 73.4612 4.40177 72.4372 4.40177H68.9972L69.7172 3.60177V10.2258Z"
                            fill="#4E4E4E" data-darkreader-inline-fill=""
                            style="--darkreader-inline-fill: var(--darkreader-text-4e4e4e, #c7baa5);">
                        </path>
                        <path
                            d="M59.4009 8.30577H65.1769V9.68177H59.4009V8.30577ZM59.5609 14.2098H57.9609V3.00977H65.8649V4.40177H59.5609V14.2098Z"
                            fill="#4E4E4E" data-darkreader-inline-fill=""
                            style="--darkreader-inline-fill: var(--darkreader-text-4e4e4e, #c7baa5);">
                        </path>
                        <path d="M219.139 43.4258V26.6258H223.027V40.2578H231.451V43.4258H219.139Z" fill="#4E4E4E"
                            data-darkreader-inline-fill=""
                            style="--darkreader-inline-fill: var(--darkreader-text-4e4e4e, #c7baa5);">
                        </path>
                        <path d="M211.264 43.4258V26.6258H215.152V43.4258H211.264Z" fill="#4E4E4E"
                            data-darkreader-inline-fill=""
                            style="--darkreader-inline-fill: var(--darkreader-text-4e4e4e, #c7baa5);">
                        </path>
                        <path
                            d="M201.479 43.7138C200.135 43.7138 198.847 43.5378 197.615 43.1858C196.383 42.8178 195.391 42.3458 194.639 41.7698L195.959 38.8418C196.679 39.3538 197.527 39.7778 198.503 40.1138C199.495 40.4338 200.495 40.5938 201.503 40.5938C202.271 40.5938 202.887 40.5218 203.351 40.3778C203.831 40.2178 204.183 40.0018 204.407 39.7298C204.631 39.4578 204.743 39.1458 204.743 38.7938C204.743 38.3458 204.567 37.9938 204.215 37.7378C203.863 37.4658 203.399 37.2498 202.823 37.0898C202.247 36.9138 201.607 36.7538 200.903 36.6098C200.215 36.4498 199.519 36.2578 198.815 36.0338C198.127 35.8098 197.495 35.5218 196.919 35.1698C196.343 34.8178 195.871 34.3538 195.503 33.7778C195.151 33.2018 194.975 32.4658 194.975 31.5698C194.975 30.6098 195.231 29.7378 195.743 28.9538C196.271 28.1538 197.055 27.5218 198.095 27.0578C199.151 26.5778 200.471 26.3378 202.055 26.3378C203.111 26.3378 204.151 26.4658 205.175 26.7218C206.199 26.9618 207.103 27.3298 207.887 27.8258L206.687 30.7778C205.903 30.3298 205.119 30.0018 204.335 29.7938C203.551 29.5698 202.783 29.4578 202.031 29.4578C201.279 29.4578 200.663 29.5458 200.183 29.7218C199.703 29.8978 199.359 30.1298 199.151 30.4178C198.943 30.6898 198.839 31.0098 198.839 31.3778C198.839 31.8098 199.015 32.1618 199.367 32.4338C199.719 32.6898 200.183 32.8978 200.759 33.0578C201.335 33.2178 201.967 33.3778 202.655 33.5378C203.359 33.6978 204.055 33.8818 204.743 34.0898C205.447 34.2978 206.087 34.5778 206.663 34.9298C207.239 35.2818 207.703 35.7458 208.055 36.3218C208.423 36.8978 208.607 37.6258 208.607 38.5058C208.607 39.4498 208.343 40.3138 207.815 41.0978C207.287 41.8818 206.495 42.5138 205.439 42.9938C204.399 43.4738 203.079 43.7138 201.479 43.7138Z"
                            fill="#4E4E4E" data-darkreader-inline-fill=""
                            style="--darkreader-inline-fill: var(--darkreader-text-4e4e4e, #c7baa5);">
                        </path>
                        <path
                            d="M175.375 43.4258L182.863 26.6258H186.703L194.215 43.4258H190.135L183.991 28.5938H185.527L179.359 43.4258H175.375ZM179.119 39.8258L180.151 36.8738H188.791L189.847 39.8258H179.119Z"
                            fill="#4E4E4E" data-darkreader-inline-fill=""
                            style="--darkreader-inline-fill: var(--darkreader-text-4e4e4e, #c7baa5);">
                        </path>
                        <path
                            d="M159.936 43.4258V26.6258H167.208C168.712 26.6258 170.008 26.8738 171.096 27.3698C172.184 27.8498 173.024 28.5458 173.616 29.4578C174.208 30.3698 174.504 31.4578 174.504 32.7218C174.504 33.9698 174.208 35.0498 173.616 35.9618C173.024 36.8578 172.184 37.5458 171.096 38.0258C170.008 38.5058 168.712 38.7458 167.208 38.7458H162.096L163.824 37.0418V43.4258H159.936ZM170.616 43.4258L166.416 37.3298H170.568L174.816 43.4258H170.616ZM163.824 37.4738L162.096 35.6498H166.992C168.192 35.6498 169.088 35.3938 169.68 34.8818C170.272 34.3538 170.568 33.6338 170.568 32.7218C170.568 31.7938 170.272 31.0738 169.68 30.5618C169.088 30.0498 168.192 29.7938 166.992 29.7938H162.096L163.824 27.9458V37.4738Z"
                            fill="#4E4E4E" data-darkreader-inline-fill=""
                            style="--darkreader-inline-fill: var(--darkreader-text-4e4e4e, #c7baa5);">
                        </path>
                        <path
                            d="M141.584 43.4258V26.6258H149.792C151.904 26.6258 153.488 27.0258 154.544 27.8258C155.616 28.6258 156.152 29.6818 156.152 30.9938C156.152 31.8738 155.936 32.6418 155.504 33.2978C155.072 33.9378 154.48 34.4338 153.728 34.7858C152.976 35.1378 152.112 35.3138 151.136 35.3138L151.592 34.3298C152.648 34.3298 153.584 34.5058 154.4 34.8578C155.216 35.1938 155.848 35.6978 156.296 36.3698C156.76 37.0418 156.992 37.8658 156.992 38.8418C156.992 40.2818 156.424 41.4098 155.288 42.2258C154.152 43.0258 152.48 43.4258 150.272 43.4258H141.584ZM145.448 40.4978H149.984C150.992 40.4978 151.752 40.3378 152.264 40.0178C152.792 39.6818 153.056 39.1538 153.056 38.4338C153.056 37.7298 152.792 37.2098 152.264 36.8738C151.752 36.5218 150.992 36.3458 149.984 36.3458H145.16V33.5138H149.312C150.256 33.5138 150.976 33.3538 151.472 33.0338C151.984 32.6978 152.24 32.1938 152.24 31.5218C152.24 30.8658 151.984 30.3778 151.472 30.0578C150.976 29.7218 150.256 29.5538 149.312 29.5538H145.448V40.4978Z"
                            fill="#4E4E4E" data-darkreader-inline-fill=""
                            style="--darkreader-inline-fill: var(--darkreader-text-4e4e4e, #c7baa5);">
                        </path>
                        <path
                            d="M122.696 43.7138C121.368 43.7138 120.136 43.4978 119 43.0658C117.88 42.6338 116.904 42.0258 116.072 41.2418C115.256 40.4578 114.616 39.5378 114.152 38.4818C113.704 37.4258 113.48 36.2738 113.48 35.0258C113.48 33.7778 113.704 32.6258 114.152 31.5698C114.616 30.5138 115.264 29.5938 116.096 28.8098C116.928 28.0258 117.904 27.4178 119.024 26.9858C120.144 26.5538 121.36 26.3378 122.672 26.3378C124 26.3378 125.216 26.5538 126.32 26.9858C127.44 27.4178 128.408 28.0258 129.224 28.8098C130.056 29.5938 130.704 30.5138 131.168 31.5698C131.632 32.6098 131.864 33.7618 131.864 35.0258C131.864 36.2738 131.632 37.4338 131.168 38.5058C130.704 39.5618 130.056 40.4818 129.224 41.2658C128.408 42.0338 127.44 42.6338 126.32 43.0658C125.216 43.4978 124.008 43.7138 122.696 43.7138ZM122.672 40.4018C123.424 40.4018 124.112 40.2738 124.736 40.0178C125.376 39.7618 125.936 39.3938 126.416 38.9138C126.896 38.4338 127.264 37.8658 127.52 37.2098C127.792 36.5538 127.928 35.8258 127.928 35.0258C127.928 34.2258 127.792 33.4978 127.52 32.8418C127.264 32.1858 126.896 31.6178 126.416 31.1378C125.952 30.6578 125.4 30.2898 124.76 30.0338C124.12 29.7778 123.424 29.6498 122.672 29.6498C121.92 29.6498 121.224 29.7778 120.584 30.0338C119.96 30.2898 119.408 30.6578 118.928 31.1378C118.448 31.6178 118.072 32.1858 117.8 32.8418C117.544 33.4978 117.416 34.2258 117.416 35.0258C117.416 35.8098 117.544 36.5378 117.8 37.2098C118.072 37.8658 118.44 38.4338 118.904 38.9138C119.384 39.3938 119.944 39.7618 120.584 40.0178C121.224 40.2738 121.92 40.4018 122.672 40.4018Z"
                            fill="#4E4E4E" data-darkreader-inline-fill=""
                            style="--darkreader-inline-fill: var(--darkreader-text-4e4e4e, #c7baa5);">
                        </path>
                        <path
                            d="M94.709 43.4258V26.6258H102.341C104.165 26.6258 105.773 26.9778 107.165 27.6818C108.557 28.3698 109.645 29.3378 110.429 30.5858C111.213 31.8338 111.605 33.3138 111.605 35.0258C111.605 36.7218 111.213 38.2018 110.429 39.4658C109.645 40.7138 108.557 41.6898 107.165 42.3938C105.773 43.0818 104.165 43.4258 102.341 43.4258H94.709ZM98.597 40.2338H102.149C103.269 40.2338 104.237 40.0258 105.053 39.6098C105.885 39.1778 106.525 38.5698 106.973 37.7858C107.437 37.0018 107.669 36.0818 107.669 35.0258C107.669 33.9538 107.437 33.0338 106.973 32.2658C106.525 31.4818 105.885 30.8818 105.053 30.4658C104.237 30.0338 103.269 29.8178 102.149 29.8178H98.597V40.2338Z"
                            fill="#4E4E4E" data-darkreader-inline-fill=""
                            style="--darkreader-inline-fill: var(--darkreader-text-4e4e4e, #c7baa5);">
                        </path>
                        <path
                            d="M82.6183 43.7138C81.2903 43.7138 80.0583 43.4978 78.9223 43.0658C77.8023 42.6338 76.8263 42.0258 75.9943 41.2418C75.1783 40.4578 74.5383 39.5378 74.0743 38.4818C73.6263 37.4258 73.4023 36.2738 73.4023 35.0258C73.4023 33.7778 73.6263 32.6258 74.0743 31.5698C74.5383 30.5138 75.1863 29.5938 76.0183 28.8098C76.8503 28.0258 77.8263 27.4178 78.9463 26.9858C80.0663 26.5538 81.2823 26.3378 82.5943 26.3378C83.9223 26.3378 85.1383 26.5538 86.2423 26.9858C87.3623 27.4178 88.3303 28.0258 89.1463 28.8098C89.9783 29.5938 90.6263 30.5138 91.0903 31.5698C91.5543 32.6098 91.7863 33.7618 91.7863 35.0258C91.7863 36.2738 91.5543 37.4338 91.0903 38.5058C90.6263 39.5618 89.9783 40.4818 89.1463 41.2658C88.3303 42.0338 87.3623 42.6338 86.2423 43.0658C85.1383 43.4978 83.9303 43.7138 82.6183 43.7138ZM82.5943 40.4018C83.3463 40.4018 84.0343 40.2738 84.6583 40.0178C85.2983 39.7618 85.8583 39.3938 86.3383 38.9138C86.8183 38.4338 87.1863 37.8658 87.4423 37.2098C87.7143 36.5538 87.8503 35.8258 87.8503 35.0258C87.8503 34.2258 87.7143 33.4978 87.4423 32.8418C87.1863 32.1858 86.8183 31.6178 86.3383 31.1378C85.8743 30.6578 85.3223 30.2898 84.6823 30.0338C84.0423 29.7778 83.3463 29.6498 82.5943 29.6498C81.8423 29.6498 81.1463 29.7778 80.5063 30.0338C79.8823 30.2898 79.3303 30.6578 78.8503 31.1378C78.3703 31.6178 77.9943 32.1858 77.7223 32.8418C77.4663 33.4978 77.3383 34.2258 77.3383 35.0258C77.3383 35.8098 77.4663 36.5378 77.7223 37.2098C77.9943 37.8658 78.3623 38.4338 78.8263 38.9138C79.3063 39.3938 79.8663 39.7618 80.5063 40.0178C81.1463 40.2738 81.8423 40.4018 82.5943 40.4018Z"
                            fill="#4E4E4E" data-darkreader-inline-fill=""
                            style="--darkreader-inline-fill: var(--darkreader-text-4e4e4e, #c7baa5);">
                        </path>
                        <path d="M63.3369 43.4258V29.7938H57.9609V26.6258H72.6009V29.7938H67.2249V43.4258H63.3369Z"
                            fill="#4E4E4E" data-darkreader-inline-fill=""
                            style="--darkreader-inline-fill: var(--darkreader-text-4e4e4e, #c7baa5);">
                        </path>
                    </svg>