<svg xmlns="http://www.w3.org/2000/svg" width="150" height="44" viewBox="0 0 234 44" fill="none">
                        <path
                            d="M36.9428 3.26638C36.7712 2.68561 36.4841 2.14547 36.0987 1.67829C35.7134 1.21111 35.2377 0.826502 34.7002 0.547507C33.6255 -0.0290594 32.3661 -0.156105 31.1979 0.194207L6.60517 7.67494H4.60826C3.38607 7.67494 2.21394 8.16045 1.34973 9.02467C0.485511 9.88888 0 11.061 0 12.2832V32.2523C0 33.4745 0.485511 34.6466 1.34973 35.5108C2.21394 36.375 3.38607 36.8606 4.60826 36.8606H33.7939C35.0161 36.8606 36.1882 36.375 37.0524 35.5108C37.9166 34.6466 38.4021 33.4745 38.4021 32.2523V28.5043L39.6771 28.1202C40.2576 27.9447 40.7978 27.6562 41.2666 27.2714C41.7354 26.8866 42.1237 26.4131 42.4091 25.8779C42.6945 25.3428 42.8715 24.7565 42.9299 24.1528C42.9882 23.5491 42.9268 22.9398 42.7492 22.3599L36.9428 3.26638ZM35.33 32.2523C35.33 32.6597 35.1681 33.0504 34.8801 33.3385C34.592 33.6266 34.2013 33.7884 33.7939 33.7884H4.60826C4.20086 33.7884 3.81015 33.6266 3.52208 33.3385C3.23401 33.0504 3.07217 32.6597 3.07217 32.2523V21.4997H35.33V32.2523ZM35.33 13.8193H3.07217V12.2832C3.07217 11.8758 3.23401 11.4851 3.52208 11.197C3.81015 10.9089 4.20086 10.7471 4.60826 10.7471H33.7939C34.2013 10.7471 34.592 10.9089 34.8801 11.197C35.1681 11.4851 35.33 11.8758 35.33 12.2832V13.8193Z"
                            fill="#263570" data-darkreader-inline-fill=""
                            style="--darkreader-inline-fill: var(--darkreader-text-263570, #b5bcc1);">
                        </path>
                        <path
                            d="M226.579 7.824H232.339V9.184H226.579V7.824ZM226.723 12.8H233.251V14.192H225.123V2.992H233.027V4.384H226.723V12.8ZM227.891 2.08L230.067 0H232.019L229.331 2.08H227.891Z"
                            fill="#4E4E4E" data-darkreader-inline-fill=""
                            style="--darkreader-inline-fill: var(--darkreader-text-4e4e4e, #c7baa5);">
                        </path>
                        <path d="M217.956 14.192V4.384H214.116V2.992H223.38V4.384H219.54V14.192H217.956Z" fill="#4E4E4E"
                            data-darkreader-inline-fill=""
                            style="--darkreader-inline-fill: var(--darkreader-text-4e4e4e, #c7baa5);">
                        </path>
                        <path
                            d="M202.88 14.192L207.952 2.992H209.536L214.624 14.192H212.944L208.416 3.888H209.056L204.528 14.192H202.88ZM205.04 11.392L205.472 10.112H211.776L212.24 11.392H205.04Z"
                            fill="#4E4E4E" data-darkreader-inline-fill=""
                            style="--darkreader-inline-fill: var(--darkreader-text-4e4e4e, #c7baa5);">
                        </path>
                        <path
                            d="M191.898 14.32C191.044 14.32 190.25 14.176 189.514 13.888C188.788 13.6 188.159 13.2 187.626 12.688C187.092 12.1653 186.676 11.5573 186.378 10.864C186.079 10.1707 185.93 9.41335 185.93 8.59201C185.93 7.77068 186.079 7.01335 186.378 6.32001C186.676 5.62668 187.092 5.02401 187.626 4.51201C188.159 3.98935 188.788 3.58401 189.514 3.29601C190.239 3.00801 191.034 2.86401 191.898 2.86401C192.751 2.86401 193.535 3.00801 194.25 3.29601C194.975 3.57335 195.604 3.97335 196.138 4.49601C196.682 5.00801 197.098 5.61068 197.386 6.30401C197.684 6.99735 197.834 7.76001 197.834 8.59201C197.834 9.42401 197.684 10.1867 197.386 10.88C197.098 11.5733 196.682 12.1813 196.138 12.704C195.604 13.216 194.975 13.616 194.25 13.904C193.535 14.1813 192.751 14.32 191.898 14.32ZM191.898 12.896C192.516 12.896 193.087 12.7893 193.61 12.576C194.143 12.3627 194.602 12.064 194.986 11.68C195.38 11.2853 195.684 10.8267 195.898 10.304C196.122 9.78135 196.234 9.21068 196.234 8.59201C196.234 7.97335 196.122 7.40268 195.898 6.88001C195.684 6.35735 195.38 5.90401 194.986 5.52001C194.602 5.12535 194.143 4.82135 193.61 4.60801C193.087 4.39468 192.516 4.28801 191.898 4.28801C191.268 4.28801 190.687 4.39468 190.154 4.60801C189.631 4.82135 189.172 5.12535 188.778 5.52001C188.383 5.90401 188.074 6.35735 187.85 6.88001C187.636 7.40268 187.53 7.97335 187.53 8.59201C187.53 9.21068 187.636 9.78135 187.85 10.304C188.074 10.8267 188.383 11.2853 188.778 11.68C189.172 12.064 189.631 12.3627 190.154 12.576C190.687 12.7893 191.268 12.896 191.898 12.896Z"
                            fill="#4E4E4E" data-darkreader-inline-fill=""
                            style="--darkreader-inline-fill: var(--darkreader-text-4e4e4e, #c7baa5);">
                        </path>
                        <path d="M179.831 14.192V4.384H175.991V2.992H185.255V4.384H181.415V14.192H179.831Z"
                            fill="#4E4E4E" data-darkreader-inline-fill=""
                            style="--darkreader-inline-fill: var(--darkreader-text-4e4e4e, #c7baa5);">
                        </path>
                        <path
                            d="M164.623 14.192V2.992H165.935L173.343 12.192H172.655V2.992H174.255V14.192H172.943L165.535 4.992H166.223V14.192H164.623Z"
                            fill="#4E4E4E" data-darkreader-inline-fill=""
                            style="--darkreader-inline-fill: var(--darkreader-text-4e4e4e, #c7baa5);">
                        </path>
                        <path
                            d="M155.36 7.824H161.12V9.184H155.36V7.824ZM155.504 12.8H162.032V14.192H153.904V2.992H161.808V4.384H155.504V12.8Z"
                            fill="#4E4E4E" data-darkreader-inline-fill=""
                            style="--darkreader-inline-fill: var(--darkreader-text-4e4e4e, #c7baa5);">
                        </path>
                        <path
                            d="M138.623 14.192V2.992H139.935L144.959 11.456H144.255L149.215 2.992H150.527L150.543 14.192H149.007L148.991 5.408H149.359L144.943 12.832H144.207L139.759 5.408H140.159V14.192H138.623Z"
                            fill="#4E4E4E" data-darkreader-inline-fill=""
                            style="--darkreader-inline-fill: var(--darkreader-text-4e4e4e, #c7baa5);">
                        </path>
                        <path
                            d="M125.208 14.192L130.28 2.992H131.864L136.952 14.192H135.272L130.744 3.888H131.384L126.856 14.192H125.208ZM127.368 11.392L127.8 10.112H134.104L134.568 11.392H127.368Z"
                            fill="#4E4E4E" data-darkreader-inline-fill=""
                            style="--darkreader-inline-fill: var(--darkreader-text-4e4e4e, #c7baa5);">
                        </path>
                        <path d="M117.404 14.192V2.992H119.004V12.8H125.068V14.192H117.404Z" fill="#4E4E4E"
                            data-darkreader-inline-fill=""
                            style="--darkreader-inline-fill: var(--darkreader-text-4e4e4e, #c7baa5);">
                        </path>
                        <path
                            d="M108.142 7.824H113.902V9.184H108.142V7.824ZM108.286 12.8H114.814V14.192H106.686V2.992H114.59V4.384H108.286V12.8Z"
                            fill="#4E4E4E" data-darkreader-inline-fill=""
                            style="--darkreader-inline-fill: var(--darkreader-text-4e4e4e, #c7baa5);">
                        </path>
                        <path
                            d="M100.131 14.32C99.2776 14.32 98.4883 14.1813 97.7629 13.904C97.0483 13.616 96.4243 13.216 95.8909 12.704C95.3683 12.1813 94.9576 11.5733 94.6589 10.88C94.3603 10.1867 94.2109 9.42401 94.2109 8.59201C94.2109 7.76001 94.3603 6.99735 94.6589 6.30401C94.9576 5.61068 95.3736 5.00801 95.9069 4.49601C96.4403 3.97335 97.0643 3.57335 97.7789 3.29601C98.5043 3.00801 99.2936 2.86401 100.147 2.86401C101.011 2.86401 101.806 3.01335 102.531 3.31201C103.267 3.60001 103.891 4.03201 104.403 4.60801L103.363 5.61601C102.936 5.16801 102.456 4.83735 101.923 4.62401C101.39 4.40001 100.819 4.28801 100.211 4.28801C99.5816 4.28801 98.9949 4.39468 98.4509 4.60801C97.9176 4.82135 97.4536 5.12001 97.0589 5.50401C96.6643 5.88801 96.3549 6.34668 96.1309 6.88001C95.9176 7.40268 95.8109 7.97335 95.8109 8.59201C95.8109 9.21068 95.9176 9.78668 96.1309 10.32C96.3549 10.8427 96.6643 11.296 97.0589 11.68C97.4536 12.064 97.9176 12.3627 98.4509 12.576C98.9949 12.7893 99.5816 12.896 100.211 12.896C100.819 12.896 101.39 12.7893 101.923 12.576C102.456 12.352 102.936 12.0107 103.363 11.552L104.403 12.56C103.891 13.136 103.267 13.5733 102.531 13.872C101.806 14.1707 101.006 14.32 100.131 14.32Z"
                            fill="#4E4E4E" data-darkreader-inline-fill=""
                            style="--darkreader-inline-fill: var(--darkreader-text-4e4e4e, #c7baa5);">
                        </path>
                        <path
                            d="M83.498 14.192V2.992H87.866C88.8474 2.992 89.6847 3.14667 90.378 3.45601C91.0714 3.76534 91.6047 4.21334 91.978 4.8C92.3514 5.38667 92.538 6.08534 92.538 6.896C92.538 7.70667 92.3514 8.40534 91.978 8.992C91.6047 9.568 91.0714 10.0107 90.378 10.32C89.6847 10.6293 88.8474 10.784 87.866 10.784H84.378L85.098 10.048V14.192H83.498ZM90.986 14.192L88.138 10.128H89.85L92.73 14.192H90.986ZM85.098 10.208L84.378 9.42401H87.818C88.842 9.42401 89.6154 9.20534 90.138 8.768C90.6714 8.32 90.938 7.696 90.938 6.896C90.938 6.096 90.6714 5.47734 90.138 5.04C89.6154 4.60267 88.842 4.384 87.818 4.384H84.378L85.098 3.584V10.208Z"
                            fill="#4E4E4E" data-darkreader-inline-fill=""
                            style="--darkreader-inline-fill: var(--darkreader-text-4e4e4e, #c7baa5);">
                        </path>
                        <path
                            d="M70.0835 14.192L75.1555 2.992H76.7395L81.8275 14.192H80.1475L75.6195 3.888H76.2595L71.7315 14.192H70.0835ZM72.2435 11.392L72.6755 10.112H78.9795L79.4435 11.392H72.2435Z"
                            fill="#4E4E4E" data-darkreader-inline-fill=""
                            style="--darkreader-inline-fill: var(--darkreader-text-4e4e4e, #c7baa5);">
                        </path>
                        <path
                            d="M60.9512 14.192V2.992H65.3192C66.3005 2.992 67.1378 3.14667 67.8312 3.45601C68.5245 3.76534 69.0578 4.21334 69.4312 4.8C69.8045 5.38667 69.9912 6.08534 69.9912 6.896C69.9912 7.70667 69.8045 8.40534 69.4312 8.992C69.0578 9.568 68.5245 10.016 67.8312 10.336C67.1378 10.6453 66.3005 10.8 65.3192 10.8H61.8312L62.5512 10.048V14.192H60.9512ZM62.5512 10.208L61.8312 9.408H65.2712C66.2952 9.408 67.0685 9.18934 67.5912 8.75201C68.1245 8.31467 68.3912 7.696 68.3912 6.896C68.3912 6.096 68.1245 5.47734 67.5912 5.04C67.0685 4.60267 66.2952 4.384 65.2712 4.384H61.8312L62.5512 3.584V10.208Z"
                            fill="#4E4E4E" data-darkreader-inline-fill=""
                            style="--darkreader-inline-fill: var(--darkreader-text-4e4e4e, #c7baa5);">
                        </path>
                        <path
                            d="M185.491 43.408L192.715 33.448V36.28L185.803 26.608H190.219L194.995 33.352L193.147 33.376L197.851 26.608H202.075L195.211 36.112V33.328L202.483 43.408H197.995L193.051 36.28H194.827L189.955 43.408H185.491Z"
                            fill="#4E4E4E" data-darkreader-inline-fill=""
                            style="--darkreader-inline-fill: var(--darkreader-text-4e4e4e, #c7baa5);">
                        </path>
                        <path
                            d="M172.055 43.408V40.888L178.535 34.768C179.047 34.304 179.423 33.888 179.663 33.52C179.903 33.152 180.063 32.816 180.143 32.512C180.239 32.208 180.287 31.928 180.287 31.672C180.287 31 180.055 30.488 179.591 30.136C179.143 29.768 178.479 29.584 177.599 29.584C176.895 29.584 176.239 29.72 175.631 29.992C175.039 30.264 174.535 30.688 174.119 31.264L171.287 29.44C171.927 28.48 172.823 27.72 173.975 27.16C175.127 26.6 176.455 26.32 177.959 26.32C179.207 26.32 180.295 26.528 181.223 26.944C182.167 27.344 182.895 27.912 183.407 28.648C183.935 29.384 184.199 30.264 184.199 31.288C184.199 31.832 184.127 32.376 183.983 32.92C183.855 33.448 183.583 34.008 183.167 34.6C182.767 35.192 182.175 35.856 181.391 36.592L176.015 41.656L175.271 40.24H184.751V43.408H172.055Z"
                            fill="#4E4E4E" data-darkreader-inline-fill=""
                            style="--darkreader-inline-fill: var(--darkreader-text-4e4e4e, #c7baa5);">
                        </path>
                        <path d="M165.392 43.408V28.048L167.072 29.728H162.032V26.608H169.28V43.408H165.392Z"
                            fill="#4E4E4E" data-darkreader-inline-fill=""
                            style="--darkreader-inline-fill: var(--darkreader-text-4e4e4e, #c7baa5);">
                        </path>
                        <path
                            d="M142.944 33.3479H151.055V36.3803H142.944V33.3479ZM143.233 40.2792H152.402V43.408H139.358V26.5609H152.089V29.6897H143.233V40.2792ZM143.546 25.1891L146.795 21.7234H150.838L146.482 25.1891H143.546Z"
                            fill="#4E4E4E" data-darkreader-inline-fill=""
                            style="--darkreader-inline-fill: var(--darkreader-text-4e4e4e, #c7baa5);">
                        </path>
                        <path d="M127.97 43.4079V29.7377H122.579V26.5609H137.26V29.7377H131.869V43.4079H127.97Z"
                            fill="#4E4E4E" data-darkreader-inline-fill=""
                            style="--darkreader-inline-fill: var(--darkreader-text-4e4e4e, #c7baa5);">
                        </path>
                        <path
                            d="M104.686 43.4079L112.195 26.5609H116.045L123.578 43.4079H119.487L113.326 28.5344H114.866L108.681 43.4079H104.686ZM108.44 39.7978L109.475 36.8376H118.139L119.198 39.7978H108.44Z"
                            fill="#4E4E4E" data-darkreader-inline-fill=""
                            style="--darkreader-inline-fill: var(--darkreader-text-4e4e4e, #c7baa5);">
                        </path>
                        <path
                            d="M77.0977 43.4079V26.5609H80.3227L87.4947 38.4501H85.7859L92.8376 26.5609H96.0386L96.0867 43.4079H92.4285L92.4044 32.1685H93.0783L87.4466 41.627H85.6897L79.9376 32.1685H80.7559V43.4079H77.0977Z"
                            fill="#4E4E4E" data-darkreader-inline-fill=""
                            style="--darkreader-inline-fill: var(--darkreader-text-4e4e4e, #c7baa5);">
                        </path>
                        <path
                            d="M64.5372 33.3478H72.6479V36.3803H64.5372V33.3478ZM64.826 40.2792H73.9956V43.4079H60.9512V26.5609H73.6828V29.6896H64.826V40.2792Z"
                            fill="#4E4E4E" data-darkreader-inline-fill=""
                            style="--darkreader-inline-fill: var(--darkreader-text-4e4e4e, #c7baa5);">
                        </path>
                    </svg>