<svg xmlns="http://www.w3.org/2000/svg" width="150" height="42" viewBox="0 0 257 42" fill="none">
                        <path
                            d="M29.191 28.8553C27.7465 28.8553 26.3878 28.2923 25.3662 27.2701L19.8437 21.7413C19.4559 21.3521 18.7801 21.3532 18.3925 21.7413L12.8498 27.2903C11.8283 28.3125 10.4696 28.8756 9.02504 28.8756H7.9367L14.9312 35.8777C17.1156 38.0644 20.6573 38.0644 22.8418 35.8777L29.8562 28.8553H29.191Z"
                            fill="#263570" data-darkreader-inline-fill=""
                            style="--darkreader-inline-fill: var(--darkreader-text-263570, #b5bcc1);">
                        </path>
                        <path
                            d="M9.02505 9.2993C10.4696 9.2993 11.8283 9.86239 12.8498 10.8846L18.3925 16.4344C18.7917 16.8342 19.4435 16.8357 19.8437 16.434L25.3662 10.9048C26.3878 9.88262 27.7464 9.31953 29.191 9.31953H29.8562L22.8419 2.29736C20.6573 0.110434 17.1156 0.110434 14.9313 2.29736L7.93703 9.29933L9.02505 9.2993Z"
                            fill="#263570" data-darkreader-inline-fill=""
                            style="--darkreader-inline-fill: var(--darkreader-text-263570, #b5bcc1);">
                        </path>
                        <path
                            d="M35.6582 15.1278L31.4194 10.8843C31.3261 10.9217 31.225 10.9451 31.1183 10.9451H29.191C28.1946 10.9451 27.2193 11.3497 26.5152 12.055L20.9928 17.5837C20.476 18.1011 19.7969 18.3599 19.1185 18.3599C18.4394 18.3599 17.7608 18.1011 17.2442 17.5842L11.7009 12.0348C10.9969 11.3293 10.0215 10.9249 9.0251 10.9249H6.65532C6.55424 10.9249 6.45979 10.901 6.37062 10.8674L2.11494 15.1278C-0.0695634 17.3147 -0.0695634 20.8602 2.11494 23.0471L6.37045 27.3073C6.45978 27.2737 6.55424 27.2499 6.65532 27.2499H9.0251C10.0215 27.2499 10.9969 26.8454 11.7009 26.1401L17.2437 20.5912C18.2455 19.5891 19.992 19.5888 20.9928 20.5917L26.5152 26.1199C27.2193 26.8252 28.1946 27.2298 29.191 27.2298H31.1183C31.225 27.2298 31.3261 27.2531 31.4194 27.2906L35.6582 23.0471C37.8425 20.8602 37.8425 17.3147 35.6582 15.1278Z"
                            fill="#263570" data-darkreader-inline-fill=""
                            style="--darkreader-inline-fill: var(--darkreader-text-263570, #b5bcc1);">
                        </path>
                        <path
                            d="M206.309 11.9852L210.965 5.63316V6.86516L206.565 0.785156H208.389L211.877 5.56916L211.157 5.58516L214.629 0.785156H216.373L212.005 6.76916V5.61716L216.661 11.9852H214.821L211.109 6.88116H211.813L208.149 11.9852H206.309Z"
                            fill="#4E4E4E" data-darkreader-inline-fill=""
                            style="--darkreader-inline-fill: var(--darkreader-text-4e4e4e, #c7baa5);">
                        </path>
                        <path d="M202.828 11.9852V0.785156H204.428V11.9852H202.828Z" fill="#4E4E4E"
                            data-darkreader-inline-fill=""
                            style="--darkreader-inline-fill: var(--darkreader-text-4e4e4e, #c7baa5);">
                        </path>
                        <path
                            d="M191.438 11.9852V0.785156H195.806C196.787 0.785156 197.624 0.939823 198.318 1.24916C199.011 1.55849 199.544 2.00649 199.918 2.59316C200.291 3.17982 200.478 3.87849 200.478 4.68916C200.478 5.49982 200.291 6.19849 199.918 6.78516C199.544 7.36116 199.011 7.80916 198.318 8.12916C197.624 8.43849 196.787 8.59316 195.806 8.59316H192.318L193.038 7.84116V11.9852H191.438ZM193.038 8.00116L192.318 7.20116H195.758C196.782 7.20116 197.555 6.98249 198.078 6.54516C198.611 6.10782 198.878 5.48916 198.878 4.68916C198.878 3.88916 198.611 3.27049 198.078 2.83316C197.555 2.39582 196.782 2.17716 195.758 2.17716H192.318L193.038 1.37716V8.00116Z"
                            fill="#4E4E4E" data-darkreader-inline-fill=""
                            style="--darkreader-inline-fill: var(--darkreader-text-4e4e4e, #c7baa5);">
                        </path>
                        <path
                            d="M178.759 12.1132C177.906 12.1132 177.111 11.9692 176.375 11.6812C175.65 11.3932 175.02 10.9932 174.487 10.4812C173.954 9.9585 173.538 9.3505 173.239 8.65717C172.94 7.96383 172.791 7.2065 172.791 6.38517C172.791 5.56383 172.94 4.8065 173.239 4.11317C173.538 3.41983 173.954 2.81717 174.487 2.30517C175.02 1.7825 175.65 1.37716 176.375 1.08916C177.1 0.801165 177.895 0.657166 178.759 0.657166C179.612 0.657166 180.396 0.801165 181.111 1.08916C181.836 1.3665 182.466 1.7665 182.999 2.28917C183.543 2.80117 183.959 3.40383 184.247 4.09717C184.546 4.7905 184.695 5.55317 184.695 6.38517C184.695 7.21717 184.546 7.97983 184.247 8.67317C183.959 9.3665 183.543 9.9745 182.999 10.4972C182.466 11.0092 181.836 11.4092 181.111 11.6972C180.396 11.9745 179.612 12.1132 178.759 12.1132ZM178.759 10.6892C179.378 10.6892 179.948 10.5825 180.471 10.3692C181.004 10.1558 181.463 9.85717 181.847 9.47317C182.242 9.0785 182.546 8.61983 182.759 8.09717C182.983 7.5745 183.095 7.00383 183.095 6.38517C183.095 5.7665 182.983 5.19583 182.759 4.67317C182.546 4.1505 182.242 3.69716 181.847 3.31316C181.463 2.9185 181.004 2.6145 180.471 2.40117C179.948 2.18783 179.378 2.08117 178.759 2.08117C178.13 2.08117 177.548 2.18783 177.015 2.40117C176.492 2.6145 176.034 2.9185 175.639 3.31316C175.244 3.69716 174.935 4.1505 174.711 4.67317C174.498 5.19583 174.391 5.7665 174.391 6.38517C174.391 7.00383 174.498 7.5745 174.711 8.09717C174.935 8.61983 175.244 9.0785 175.639 9.47317C176.034 9.85717 176.492 10.1558 177.015 10.3692C177.548 10.5825 178.13 10.6892 178.759 10.6892Z"
                            fill="#4E4E4E" data-darkreader-inline-fill=""
                            style="--darkreader-inline-fill: var(--darkreader-text-4e4e4e, #c7baa5);">
                        </path>
                        <path
                            d="M160.719 11.9852V0.785156H162.031L169.439 9.98516H168.751V0.785156H170.351V11.9852H169.039L161.631 2.78516H162.319V11.9852H160.719Z"
                            fill="#4E4E4E" data-darkreader-inline-fill=""
                            style="--darkreader-inline-fill: var(--darkreader-text-4e4e4e, #c7baa5);">
                        </path>
                        <path
                            d="M148.04 12.1132C147.187 12.1132 146.392 11.9692 145.656 11.6812C144.931 11.3932 144.302 10.9932 143.768 10.4812C143.235 9.9585 142.819 9.3505 142.52 8.65717C142.222 7.96383 142.072 7.2065 142.072 6.38517C142.072 5.56383 142.222 4.8065 142.52 4.11317C142.819 3.41983 143.235 2.81717 143.768 2.30517C144.302 1.7825 144.931 1.37716 145.656 1.08916C146.382 0.801165 147.176 0.657166 148.04 0.657166C148.894 0.657166 149.678 0.801165 150.392 1.08916C151.118 1.3665 151.747 1.7665 152.28 2.28917C152.824 2.80117 153.24 3.40383 153.528 4.09717C153.827 4.7905 153.976 5.55317 153.976 6.38517C153.976 7.21717 153.827 7.97983 153.528 8.67317C153.24 9.3665 152.824 9.9745 152.28 10.4972C151.747 11.0092 151.118 11.4092 150.392 11.6972C149.678 11.9745 148.894 12.1132 148.04 12.1132ZM148.04 10.6892C148.659 10.6892 149.23 10.5825 149.752 10.3692C150.286 10.1558 150.744 9.85717 151.128 9.47317C151.523 9.0785 151.827 8.61983 152.04 8.09717C152.264 7.5745 152.376 7.00383 152.376 6.38517C152.376 5.7665 152.264 5.19583 152.04 4.67317C151.827 4.1505 151.523 3.69716 151.128 3.31316C150.744 2.9185 150.286 2.6145 149.752 2.40117C149.23 2.18783 148.659 2.08117 148.04 2.08117C147.411 2.08117 146.83 2.18783 146.296 2.40117C145.774 2.6145 145.315 2.9185 144.92 3.31316C144.526 3.69716 144.216 4.1505 143.992 4.67317C143.779 5.19583 143.672 5.7665 143.672 6.38517C143.672 7.00383 143.779 7.5745 143.992 8.09717C144.216 8.61983 144.526 9.0785 144.92 9.47317C145.315 9.85717 145.774 10.1558 146.296 10.3692C146.83 10.5825 147.411 10.6892 148.04 10.6892Z"
                            fill="#4E4E4E" data-darkreader-inline-fill=""
                            style="--darkreader-inline-fill: var(--darkreader-text-4e4e4e, #c7baa5);">
                        </path>
                        <path d="M135.975 11.9852V2.17716H132.135V0.785156H141.399V2.17716H137.559V11.9852H135.975Z"
                            fill="#4E4E4E" data-darkreader-inline-fill=""
                            style="--darkreader-inline-fill: var(--darkreader-text-4e4e4e, #c7baa5);">
                        </path>
                        <path
                            d="M120.766 11.9852V0.785156H122.078L129.486 9.98516H128.798V0.785156H130.398V11.9852H129.086L121.678 2.78516H122.366V11.9852H120.766Z"
                            fill="#4E4E4E" data-darkreader-inline-fill=""
                            style="--darkreader-inline-fill: var(--darkreader-text-4e4e4e, #c7baa5);">
                        </path>
                        <path
                            d="M111.503 5.61716H117.263V6.97716H111.503V5.61716ZM111.647 10.5932H118.175V11.9852H110.047V0.785156H117.951V2.17716H111.647V10.5932Z"
                            fill="#4E4E4E" data-darkreader-inline-fill=""
                            style="--darkreader-inline-fill: var(--darkreader-text-4e4e4e, #c7baa5);">
                        </path>
                        <path
                            d="M94.7656 11.9852V0.785156H96.0776L101.102 9.24916H100.398L105.358 0.785156H106.67L106.686 11.9852H105.15L105.134 3.20116H105.502L101.086 10.6252H100.35L95.9016 3.20116H96.3016V11.9852H94.7656Z"
                            fill="#4E4E4E" data-darkreader-inline-fill=""
                            style="--darkreader-inline-fill: var(--darkreader-text-4e4e4e, #c7baa5);">
                        </path>
                        <path
                            d="M81.3516 11.9852L86.4236 0.785156H88.0076L93.0956 11.9852H91.4156L86.8876 1.68116H87.5276L82.9996 11.9852H81.3516ZM83.5116 9.18516L83.9436 7.90516H90.2476L90.7116 9.18516H83.5116Z"
                            fill="#4E4E4E" data-darkreader-inline-fill=""
                            style="--darkreader-inline-fill: var(--darkreader-text-4e4e4e, #c7baa5);">
                        </path>
                        <path
                            d="M75.7434 12.1132C74.8794 12.1132 74.0847 11.9745 73.3594 11.6972C72.6341 11.4092 72.0047 11.0092 71.4714 10.4972C70.9381 9.9745 70.5221 9.3665 70.2234 8.67317C69.9247 7.97983 69.7754 7.21717 69.7754 6.38517C69.7754 5.55317 69.9247 4.7905 70.2234 4.09717C70.5221 3.40383 70.9381 2.80117 71.4714 2.28917C72.0154 1.7665 72.6501 1.3665 73.3754 1.08916C74.1007 0.801165 74.9007 0.657166 75.7754 0.657166C76.6607 0.657166 77.4714 0.801165 78.2074 1.08916C78.9434 1.37716 79.5674 1.80917 80.0794 2.38517L79.0874 3.37716C78.6287 2.92916 78.1274 2.60383 77.5834 2.40117C77.0501 2.18783 76.4687 2.08117 75.8394 2.08117C75.1994 2.08117 74.6021 2.18783 74.0474 2.40117C73.5034 2.6145 73.0287 2.91316 72.6234 3.29716C72.2287 3.68117 71.9194 4.13983 71.6954 4.67317C71.4821 5.19583 71.3754 5.7665 71.3754 6.38517C71.3754 6.99317 71.4821 7.56383 71.6954 8.09717C71.9194 8.61983 72.2287 9.0785 72.6234 9.47317C73.0287 9.85717 73.5034 10.1558 74.0474 10.3692C74.5914 10.5825 75.1834 10.6892 75.8234 10.6892C76.4207 10.6892 76.9914 10.5985 77.5354 10.4172C78.0901 10.2252 78.6021 9.9105 79.0714 9.47317L79.9834 10.6892C79.4287 11.1585 78.7781 11.5158 78.0314 11.7612C77.2954 11.9958 76.5327 12.1132 75.7434 12.1132ZM78.4474 10.4812V6.32117H79.9834V10.6892L78.4474 10.4812Z"
                            fill="#4E4E4E" data-darkreader-inline-fill=""
                            style="--darkreader-inline-fill: var(--darkreader-text-4e4e4e, #c7baa5);">
                        </path>
                        <path
                            d="M57.4297 11.9852L62.5017 0.785156H64.0857L69.1737 11.9852H67.4937L62.9657 1.68116H63.6057L59.0777 11.9852H57.4297ZM59.5897 9.18516L60.0217 7.90516H66.3257L66.7897 9.18516H59.5897Z"
                            fill="#4E4E4E" data-darkreader-inline-fill=""
                            style="--darkreader-inline-fill: var(--darkreader-text-4e4e4e, #c7baa5);">
                        </path>
                        <path
                            d="M48.2969 11.9852V0.785156H52.6649C53.6462 0.785156 54.4835 0.939823 55.1769 1.24916C55.8702 1.55849 56.4035 2.00649 56.7769 2.59316C57.1502 3.17982 57.3369 3.87849 57.3369 4.68916C57.3369 5.49982 57.1502 6.19849 56.7769 6.78516C56.4035 7.36116 55.8702 7.80916 55.1769 8.12916C54.4835 8.43849 53.6462 8.59316 52.6649 8.59316H49.1769L49.8969 7.84116V11.9852H48.2969ZM49.8969 8.00116L49.1769 7.20116H52.6169C53.6409 7.20116 54.4142 6.98249 54.9369 6.54516C55.4702 6.10782 55.7369 5.48916 55.7369 4.68916C55.7369 3.88916 55.4702 3.27049 54.9369 2.83316C54.4142 2.39582 53.6409 2.17716 52.6169 2.17716H49.1769L49.8969 1.37716V8.00116Z"
                            fill="#4E4E4E" data-darkreader-inline-fill=""
                            style="--darkreader-inline-fill: var(--darkreader-text-4e4e4e, #c7baa5);">
                        </path>
                        <path
                            d="M247.45 41.4892C246.122 41.4892 244.89 41.2732 243.754 40.8412C242.634 40.4092 241.658 39.8012 240.826 39.0172C240.01 38.2332 239.37 37.3132 238.906 36.2572C238.458 35.2012 238.234 34.0492 238.234 32.8012C238.234 31.5532 238.458 30.4012 238.906 29.3452C239.37 28.2892 240.018 27.3692 240.85 26.5852C241.682 25.8012 242.658 25.1932 243.778 24.7612C244.898 24.3292 246.114 24.1132 247.426 24.1132C248.754 24.1132 249.97 24.3292 251.074 24.7612C252.194 25.1932 253.162 25.8012 253.978 26.5852C254.81 27.3692 255.458 28.2892 255.922 29.3452C256.386 30.3852 256.618 31.5372 256.618 32.8012C256.618 34.0492 256.386 35.2092 255.922 36.2812C255.458 37.3372 254.81 38.2572 253.978 39.0412C253.162 39.8092 252.194 40.4092 251.074 40.8412C249.97 41.2732 248.762 41.4892 247.45 41.4892ZM247.426 38.1772C248.178 38.1772 248.866 38.0492 249.49 37.7932C250.13 37.5372 250.69 37.1692 251.17 36.6892C251.65 36.2092 252.018 35.6412 252.274 34.9852C252.546 34.3292 252.682 33.6012 252.682 32.8012C252.682 32.0012 252.546 31.2732 252.274 30.6172C252.018 29.9612 251.65 29.3932 251.17 28.9132C250.706 28.4332 250.154 28.0652 249.514 27.8092C248.874 27.5532 248.178 27.4252 247.426 27.4252C246.674 27.4252 245.978 27.5532 245.338 27.8092C244.714 28.0652 244.162 28.4332 243.682 28.9132C243.202 29.3932 242.826 29.9612 242.554 30.6172C242.298 31.2732 242.17 32.0012 242.17 32.8012C242.17 33.5852 242.298 34.3132 242.554 34.9852C242.826 35.6412 243.194 36.2092 243.658 36.6892C244.138 37.1692 244.698 37.5372 245.338 37.7932C245.978 38.0492 246.674 38.1772 247.426 38.1772Z"
                            fill="#4E4E4E" data-darkreader-inline-fill=""
                            style="--darkreader-inline-fill: var(--darkreader-text-4e4e4e, #c7baa5);">
                        </path>
                        <path d="M228.169 41.2012V27.5692H222.793V24.4012H237.433V27.5692H232.057V41.2012H228.169Z"
                            fill="#4E4E4E" data-darkreader-inline-fill=""
                            style="--darkreader-inline-fill: var(--darkreader-text-4e4e4e, #c7baa5);">
                        </path>
                        <path
                            d="M205.307 41.2012V24.4012H208.523L218.435 36.4972H216.875V24.4012H220.715V41.2012H217.523L207.587 29.1052H209.147V41.2012H205.307Z"
                            fill="#4E4E4E" data-darkreader-inline-fill=""
                            style="--darkreader-inline-fill: var(--darkreader-text-4e4e4e, #c7baa5);">
                        </path>
                        <path
                            d="M193.216 41.4892C191.888 41.4892 190.656 41.2732 189.52 40.8412C188.4 40.4092 187.424 39.8012 186.592 39.0172C185.776 38.2332 185.136 37.3132 184.672 36.2572C184.224 35.2012 184 34.0492 184 32.8012C184 31.5532 184.224 30.4012 184.672 29.3452C185.136 28.2892 185.784 27.3692 186.616 26.5852C187.448 25.8012 188.424 25.1932 189.544 24.7612C190.664 24.3292 191.88 24.1132 193.192 24.1132C194.52 24.1132 195.736 24.3292 196.84 24.7612C197.96 25.1932 198.928 25.8012 199.744 26.5852C200.576 27.3692 201.224 28.2892 201.688 29.3452C202.152 30.3852 202.384 31.5372 202.384 32.8012C202.384 34.0492 202.152 35.2092 201.688 36.2812C201.224 37.3372 200.576 38.2572 199.744 39.0412C198.928 39.8092 197.96 40.4092 196.84 40.8412C195.736 41.2732 194.528 41.4892 193.216 41.4892ZM193.192 38.1772C193.944 38.1772 194.632 38.0492 195.256 37.7932C195.896 37.5372 196.456 37.1692 196.936 36.6892C197.416 36.2092 197.784 35.6412 198.04 34.9852C198.312 34.3292 198.448 33.6012 198.448 32.8012C198.448 32.0012 198.312 31.2732 198.04 30.6172C197.784 29.9612 197.416 29.3932 196.936 28.9132C196.472 28.4332 195.92 28.0652 195.28 27.8092C194.64 27.5532 193.944 27.4252 193.192 27.4252C192.44 27.4252 191.744 27.5532 191.104 27.8092C190.48 28.0652 189.928 28.4332 189.448 28.9132C188.968 29.3932 188.592 29.9612 188.32 30.6172C188.064 31.2732 187.936 32.0012 187.936 32.8012C187.936 33.5852 188.064 34.3132 188.32 34.9852C188.592 35.6412 188.96 36.2092 189.424 36.6892C189.904 37.1692 190.464 37.5372 191.104 37.7932C191.744 38.0492 192.44 38.1772 193.192 38.1772Z"
                            fill="#4E4E4E" data-darkreader-inline-fill=""
                            style="--darkreader-inline-fill: var(--darkreader-text-4e4e4e, #c7baa5);">
                        </path>
                        <path
                            d="M175.846 41.4892C174.55 41.4892 173.342 41.2812 172.222 40.8652C171.118 40.4332 170.158 39.8252 169.342 39.0412C168.526 38.2572 167.886 37.3372 167.422 36.2812C166.974 35.2252 166.75 34.0652 166.75 32.8012C166.75 31.5372 166.974 30.3772 167.422 29.3212C167.886 28.2652 168.526 27.3452 169.342 26.5612C170.174 25.7772 171.142 25.1772 172.246 24.7612C173.35 24.3292 174.558 24.1132 175.87 24.1132C177.326 24.1132 178.638 24.3692 179.806 24.8812C180.99 25.3772 181.982 26.1132 182.782 27.0892L180.286 29.3932C179.71 28.7372 179.07 28.2492 178.366 27.9292C177.662 27.5932 176.894 27.4252 176.062 27.4252C175.278 27.4252 174.558 27.5532 173.902 27.8092C173.246 28.0652 172.678 28.4332 172.198 28.9132C171.718 29.3932 171.342 29.9612 171.07 30.6172C170.814 31.2732 170.686 32.0012 170.686 32.8012C170.686 33.6012 170.814 34.3292 171.07 34.9852C171.342 35.6412 171.718 36.2092 172.198 36.6892C172.678 37.1692 173.246 37.5372 173.902 37.7932C174.558 38.0492 175.278 38.1772 176.062 38.1772C176.894 38.1772 177.662 38.0172 178.366 37.6972C179.07 37.3612 179.71 36.8572 180.286 36.1852L182.782 38.4892C181.982 39.4652 180.99 40.2092 179.806 40.7212C178.638 41.2332 177.318 41.4892 175.846 41.4892Z"
                            fill="#4E4E4E" data-darkreader-inline-fill=""
                            style="--darkreader-inline-fill: var(--darkreader-text-4e4e4e, #c7baa5);">
                        </path>
                        <path
                            d="M158.022 41.4892C156.678 41.4892 155.39 41.3132 154.158 40.9612C152.926 40.5932 151.934 40.1212 151.182 39.5452L152.502 36.6172C153.222 37.1292 154.07 37.5532 155.046 37.8892C156.038 38.2092 157.038 38.3692 158.046 38.3692C158.814 38.3692 159.43 38.2972 159.894 38.1532C160.374 37.9932 160.726 37.7772 160.95 37.5052C161.174 37.2332 161.286 36.9212 161.286 36.5692C161.286 36.1212 161.11 35.7692 160.758 35.5132C160.406 35.2412 159.942 35.0252 159.366 34.8652C158.79 34.6892 158.15 34.5292 157.446 34.3852C156.758 34.2252 156.062 34.0332 155.358 33.8092C154.67 33.5852 154.038 33.2972 153.462 32.9452C152.886 32.5932 152.414 32.1292 152.046 31.5532C151.694 30.9772 151.518 30.2412 151.518 29.3452C151.518 28.3852 151.774 27.5132 152.286 26.7292C152.814 25.9292 153.598 25.2972 154.638 24.8332C155.694 24.3532 157.014 24.1132 158.598 24.1132C159.654 24.1132 160.694 24.2412 161.718 24.4972C162.742 24.7372 163.646 25.1052 164.43 25.6012L163.23 28.5532C162.446 28.1052 161.662 27.7772 160.878 27.5692C160.094 27.3452 159.326 27.2332 158.574 27.2332C157.822 27.2332 157.206 27.3212 156.726 27.4972C156.246 27.6732 155.902 27.9052 155.694 28.1932C155.486 28.4652 155.382 28.7852 155.382 29.1532C155.382 29.5852 155.558 29.9372 155.91 30.2092C156.262 30.4652 156.726 30.6732 157.302 30.8332C157.878 30.9932 158.51 31.1532 159.198 31.3132C159.902 31.4732 160.598 31.6572 161.286 31.8652C161.99 32.0732 162.63 32.3532 163.206 32.7052C163.782 33.0572 164.246 33.5212 164.598 34.0972C164.966 34.6732 165.15 35.4012 165.15 36.2812C165.15 37.2252 164.886 38.0892 164.358 38.8732C163.83 39.6572 163.038 40.2892 161.982 40.7692C160.942 41.2492 159.622 41.4892 158.022 41.4892Z"
                            fill="#4E4E4E" data-darkreader-inline-fill=""
                            style="--darkreader-inline-fill: var(--darkreader-text-4e4e4e, #c7baa5);">
                        </path>
                        <path
                            d="M139.976 31.1692H148.064V34.1932H139.976V31.1692ZM140.264 38.0812H149.408V41.2012H136.4V24.4012H149.096V27.5212H140.264V38.0812Z"
                            fill="#4E4E4E" data-darkreader-inline-fill=""
                            style="--darkreader-inline-fill: var(--darkreader-text-4e4e4e, #c7baa5);">
                        </path>
                        <path
                            d="M116.572 41.2012V24.4012H124.204C126.028 24.4012 127.636 24.7532 129.028 25.4572C130.42 26.1452 131.508 27.1132 132.292 28.3612C133.076 29.6092 133.468 31.0892 133.468 32.8012C133.468 34.4972 133.076 35.9772 132.292 37.2412C131.508 38.4892 130.42 39.4652 129.028 40.1692C127.636 40.8572 126.028 41.2012 124.204 41.2012H116.572ZM120.46 38.0092H124.012C125.132 38.0092 126.1 37.8012 126.916 37.3852C127.748 36.9532 128.388 36.3452 128.836 35.5612C129.3 34.7772 129.532 33.8572 129.532 32.8012C129.532 31.7292 129.3 30.8092 128.836 30.0412C128.388 29.2572 127.748 28.6572 126.916 28.2412C126.1 27.8092 125.132 27.5932 124.012 27.5932H120.46V38.0092Z"
                            fill="#4E4E4E" data-darkreader-inline-fill=""
                            style="--darkreader-inline-fill: var(--darkreader-text-4e4e4e, #c7baa5);">
                        </path>
                        <path
                            d="M86.8535 41.2012V24.4012H90.0695L97.2215 36.2572H95.5175L102.55 24.4012H105.742L105.79 41.2012H102.142L102.118 29.9932H102.79L97.1735 39.4252H95.4215L89.6855 29.9932H90.5015V41.2012H86.8535Z"
                            fill="#4E4E4E" data-darkreader-inline-fill=""
                            style="--darkreader-inline-fill: var(--darkreader-text-4e4e4e, #c7baa5);">
                        </path>
                        <path
                            d="M74.7629 41.4892C73.4349 41.4892 72.2029 41.2732 71.0669 40.8412C69.9469 40.4092 68.9709 39.8012 68.1389 39.0172C67.3229 38.2332 66.6829 37.3132 66.2189 36.2572C65.7709 35.2012 65.5469 34.0492 65.5469 32.8012C65.5469 31.5532 65.7709 30.4012 66.2189 29.3452C66.6829 28.2892 67.3309 27.3692 68.1629 26.5852C68.9949 25.8012 69.9709 25.1932 71.0909 24.7612C72.2109 24.3292 73.4269 24.1132 74.7389 24.1132C76.0669 24.1132 77.2829 24.3292 78.3869 24.7612C79.5069 25.1932 80.4749 25.8012 81.2909 26.5852C82.1229 27.3692 82.7709 28.2892 83.2349 29.3452C83.6989 30.3852 83.9309 31.5372 83.9309 32.8012C83.9309 34.0492 83.6989 35.2092 83.2349 36.2812C82.7709 37.3372 82.1229 38.2572 81.2909 39.0412C80.4749 39.8092 79.5069 40.4092 78.3869 40.8412C77.2829 41.2732 76.0749 41.4892 74.7629 41.4892ZM74.7389 38.1772C75.4909 38.1772 76.1789 38.0492 76.8029 37.7932C77.4429 37.5372 78.0029 37.1692 78.4829 36.6892C78.9629 36.2092 79.3309 35.6412 79.5869 34.9852C79.8589 34.3292 79.9949 33.6012 79.9949 32.8012C79.9949 32.0012 79.8589 31.2732 79.5869 30.6172C79.3309 29.9612 78.9629 29.3932 78.4829 28.9132C78.0189 28.4332 77.4669 28.0652 76.8269 27.8092C76.1869 27.5532 75.4909 27.4252 74.7389 27.4252C73.9869 27.4252 73.2909 27.5532 72.6509 27.8092C72.0269 28.0652 71.4749 28.4332 70.9949 28.9132C70.5149 29.3932 70.1389 29.9612 69.8669 30.6172C69.6109 31.2732 69.4829 32.0012 69.4829 32.8012C69.4829 33.5852 69.6109 34.3132 69.8669 34.9852C70.1389 35.6412 70.5069 36.2092 70.9709 36.6892C71.4509 37.1692 72.0109 37.5372 72.6509 37.7932C73.2909 38.0492 73.9869 38.1772 74.7389 38.1772Z"
                            fill="#4E4E4E" data-darkreader-inline-fill=""
                            style="--darkreader-inline-fill: var(--darkreader-text-4e4e4e, #c7baa5);">
                        </path>
                        <path
                            d="M57.3929 41.4892C56.0969 41.4892 54.8889 41.2812 53.7689 40.8652C52.6649 40.4332 51.7049 39.8252 50.8889 39.0412C50.0729 38.2572 49.4329 37.3372 48.9689 36.2812C48.5209 35.2252 48.2969 34.0652 48.2969 32.8012C48.2969 31.5372 48.5209 30.3772 48.9689 29.3212C49.4329 28.2652 50.0729 27.3452 50.8889 26.5612C51.7209 25.7772 52.6889 25.1772 53.7929 24.7612C54.8969 24.3292 56.1049 24.1132 57.4169 24.1132C58.8729 24.1132 60.1849 24.3692 61.3529 24.8812C62.5369 25.3772 63.5289 26.1132 64.3289 27.0892L61.8329 29.3932C61.2569 28.7372 60.6169 28.2492 59.9129 27.9292C59.2089 27.5932 58.4409 27.4252 57.6089 27.4252C56.8249 27.4252 56.1049 27.5532 55.4489 27.8092C54.7929 28.0652 54.2249 28.4332 53.7449 28.9132C53.2649 29.3932 52.8889 29.9612 52.6169 30.6172C52.3609 31.2732 52.2329 32.0012 52.2329 32.8012C52.2329 33.6012 52.3609 34.3292 52.6169 34.9852C52.8889 35.6412 53.2649 36.2092 53.7449 36.6892C54.2249 37.1692 54.7929 37.5372 55.4489 37.7932C56.1049 38.0492 56.8249 38.1772 57.6089 38.1772C58.4409 38.1772 59.2089 38.0172 59.9129 37.6972C60.6169 37.3612 61.2569 36.8572 61.8329 36.1852L64.3289 38.4892C63.5289 39.4652 62.5369 40.2092 61.3529 40.7212C60.1849 41.2332 58.8649 41.4892 57.3929 41.4892Z"
                            fill="#4E4E4E" data-darkreader-inline-fill=""
                            style="--darkreader-inline-fill: var(--darkreader-text-4e4e4e, #c7baa5);">
                        </path>
                    </svg>